<?xml version="1.0" encoding="utf-8"?>
<!-- Generator: Adobe Illustrator 26.5.0, SVG Export Plug-In . SVG Version: 6.00 Build 0)  -->
<svg version="1.1" id="Layer_1" xmlns="http://www.w3.org/2000/svg" xmlns:xlink="http://www.w3.org/1999/xlink" x="0px" y="0px"
	 viewBox="0 0 1000 200" style="enable-background:new 0 0 1000 200;" xml:space="preserve">
<style type="text/css">
	.st0{fill:#FF6200;}
</style>
<g>
	<g>
		<g>
			<path class="st0" d="M269.548,156.398v20.734h-4.301v-50.908h17.342c5.292,0,9.471,1.352,12.535,4.056
				c3.065,2.704,4.598,6.421,4.598,11.153c0,4.779-1.475,8.468-4.422,11.066c-2.949,2.6-7.221,3.899-12.815,3.899H269.548z
				 M269.548,152.761h13.041c4.173,0,7.354-0.992,9.546-2.976c2.19-1.984,3.286-4.751,3.286-8.3c0-3.525-1.09-6.332-3.269-8.421
				c-2.18-2.089-5.274-3.157-9.283-3.204h-13.321V152.761z"/>
			<path class="st0" d="M307.212,128.374c0-0.788,0.256-1.454,0.769-1.998c0.513-0.544,1.212-0.816,2.098-0.816
				s1.591,0.272,2.116,0.816c0.523,0.544,0.786,1.21,0.786,1.998c0,0.788-0.263,1.448-0.786,1.98
				c-0.525,0.533-1.23,0.799-2.116,0.799s-1.585-0.266-2.098-0.799C307.468,129.821,307.212,129.161,307.212,128.374z
				 M312.142,177.132h-4.196v-37.832h4.196V177.132z"/>
			<path class="st0" d="M326.768,139.299l0.14,6.469c1.422-2.331,3.193-4.108,5.314-5.332c2.121-1.224,4.463-1.836,7.027-1.836
				c4.057,0,7.074,1.143,9.057,3.427c1.98,2.285,2.983,5.711,3.007,10.279v24.825h-4.161v-24.86c-0.023-3.379-0.74-5.897-2.15-7.552
				c-1.41-1.655-3.666-2.483-6.766-2.483c-2.588,0-4.877,0.811-6.87,2.43c-1.993,1.621-3.468,3.806-4.423,6.556v25.909h-4.16
				v-37.832H326.768z"/>
			<path class="st0" d="M360.001,157.866c0-5.92,1.312-10.612,3.934-14.073c2.623-3.461,6.184-5.192,10.682-5.192
				c5.151,0,9.067,2.052,11.748,6.154l0.21-5.455h3.916v37.062c0,4.872-1.364,8.729-4.091,11.573
				c-2.728,2.844-6.422,4.266-11.084,4.266c-2.634,0-5.146-0.589-7.535-1.766c-2.389-1.177-4.271-2.744-5.646-4.702l2.343-2.518
				c2.96,3.636,6.479,5.454,10.56,5.454c3.496,0,6.223-1.031,8.182-3.094c1.957-2.063,2.972-4.925,3.041-8.584v-4.756
				c-2.68,3.73-6.585,5.595-11.713,5.595c-4.382,0-7.901-1.748-10.559-5.245c-2.657-3.496-3.986-8.216-3.986-14.16V157.866z
				 M364.232,158.6c0,4.825,0.968,8.631,2.902,11.416c1.936,2.785,4.662,4.178,8.182,4.178c5.151,0,8.799-2.308,10.943-6.923
				v-17.587c-0.979-2.424-2.389-4.271-4.23-5.542c-1.842-1.27-4.055-1.906-6.643-1.906c-3.52,0-6.259,1.381-8.217,4.144
				S364.232,153.215,364.232,158.6z"/>
			<path class="st0" d="M399.349,157.866c0-5.874,1.311-10.553,3.934-14.038c2.622-3.485,6.183-5.228,10.682-5.228
				c5.104,0,8.997,2.017,11.678,6.049v-21.223h4.16v53.706h-3.915l-0.175-5.035c-2.681,3.823-6.621,5.734-11.818,5.734
				c-4.359,0-7.873-1.754-10.541-5.262c-2.67-3.509-4.004-8.246-4.004-14.213V157.866z M403.579,158.6
				c0,4.825,0.967,8.631,2.902,11.416c1.935,2.785,4.662,4.178,8.182,4.178c5.151,0,8.811-2.272,10.979-6.817v-17.762
				c-2.168-4.918-5.804-7.378-10.908-7.378c-3.521,0-6.26,1.381-8.217,4.144C404.558,149.142,403.579,153.215,403.579,158.6z"/>
			<path class="st0" d="M438.216,157.656c0-3.636,0.704-6.911,2.115-9.825c1.41-2.914,3.402-5.18,5.979-6.801
				c2.575-1.62,5.494-2.43,8.759-2.43c5.034,0,9.114,1.766,12.237,5.297c3.123,3.531,4.686,8.211,4.686,14.038v0.875
				c0,3.659-0.705,6.952-2.115,9.877c-1.41,2.926-3.398,5.181-5.962,6.766c-2.564,1.586-5.489,2.378-8.776,2.378
				c-5.012,0-9.085-1.766-12.22-5.297c-3.136-3.531-4.702-8.211-4.702-14.039V157.656z M442.411,158.81
				c0,4.522,1.171,8.234,3.514,11.136c2.343,2.902,5.414,4.354,9.213,4.354c3.776,0,6.836-1.451,9.179-4.354
				c2.343-2.901,3.514-6.73,3.514-11.486v-0.804c0-2.89-0.536-5.536-1.608-7.937s-2.576-4.26-4.51-5.577
				c-1.936-1.316-4.15-1.976-6.644-1.976c-3.729,0-6.772,1.463-9.126,4.388c-2.354,2.926-3.531,6.754-3.531,11.486V158.81z"/>
			<path class="st0" d="M484.367,139.299l0.14,6.154c1.399-2.284,3.147-3.997,5.245-5.14c2.098-1.142,4.428-1.713,6.992-1.713
				c5.968,0,9.756,2.448,11.364,7.343c1.352-2.354,3.158-4.167,5.419-5.437c2.261-1.27,4.756-1.906,7.482-1.906
				c8.112,0,12.25,4.429,12.413,13.287v25.245h-4.196v-24.93c-0.023-3.38-0.751-5.886-2.185-7.518
				c-1.434-1.631-3.771-2.448-7.011-2.448c-3.007,0.047-5.548,1.02-7.622,2.92c-2.075,1.9-3.23,4.213-3.462,6.94v25.035h-4.195
				v-25.245c-0.023-3.24-0.787-5.658-2.29-7.255c-1.504-1.597-3.817-2.396-6.94-2.396c-2.635,0-4.896,0.752-6.783,2.255
				c-1.889,1.503-3.287,3.736-4.196,6.696v25.944h-4.196v-37.832H484.367z"/>
		</g>
		<g>
			<g>
				<g>
					<g>
						<path class="st0" d="M409.642,96.429V33.558h11.028V86.72h30.122v9.709H409.642z"/>
					</g>
					<g>
						<path class="st0" d="M516.316,96.429l-4.618-12.065h-29.786l-4.619,12.065h-12.065l24.696-62.871h13.761l24.696,62.871
							H516.316z M496.804,42.89l-11.782,31.765h23.564L496.804,42.89z"/>
					</g>
					<g>
						<path class="st0" d="M668.982,96.429l-12.253-46.376l-12.159,46.376h-11.783l-18.004-62.871h12.348l12.254,48.45l13.007-48.45
							h8.766l13.007,48.45l12.159-48.45h12.348l-17.909,62.871H668.982z"/>
					</g>
					<g>
						<path class="st0" d="M720.36,96.429V33.558h11.028v62.871H720.36z"/>
					</g>
					<g>
						<path class="st0" d="M803.944,96.429l-32.802-45.81v45.81h-11.028V33.558h11.311l32.142,44.585V33.558h11.028v62.871H803.944z
							"/>
					</g>
					<g>
						<path class="st0" d="M840.912,96.429V33.558h23.376c19.606,0,32.896,13.008,32.896,31.482
							c0,18.476-13.29,31.389-32.896,31.389H840.912z M851.94,86.72h12.348c13.667,0,21.585-9.803,21.585-21.68
							c0-12.159-7.541-21.773-21.585-21.773H851.94V86.72z"/>
					</g>
					<g>
						<path class="st0" d="M358.026,32.521c-17.96,0-32.52,14.56-32.52,32.52c0,17.96,14.56,32.52,32.52,32.52
							c17.96,0,32.52-14.56,32.52-32.52C390.546,47.081,375.986,32.521,358.026,32.521z M358.026,86.58
							c-11.896,0-21.539-9.643-21.539-21.539s9.643-21.539,21.539-21.539s21.539,9.643,21.539,21.539S369.921,86.58,358.026,86.58z"
							/>
					</g>
					<g>
						<path class="st0" d="M588.674,76.699L588.674,76.699l-0.092-0.148l-0.057-0.091l-2.941-4.727l-0.009,0l-0.581-0.93
							c6.179-2.3,11.436-8.063,11.436-17.544c0-11.594-8.107-19.7-20.549-19.7h-27.618v62.871h11.028V72.958h4.046h6.888h4.046
							l13.95,23.471h12.725L588.674,76.699z M559.293,63.249V43.267h15.081c6.221,0,10.746,3.959,10.746,9.992
							c0,6.033-4.524,9.991-10.746,9.991H559.293z"/>
					</g>
					<g>
						<path class="st0" d="M287.373,58.631c-7.447-1.886-13.856-3.488-13.856-8.389c0-4.713,4.147-7.824,10.651-7.824
							c6.231,0,12.527,2.048,17.339,6.401l6.931-7.128l0.238-0.31c-5.844-5.656-13.762-8.766-23.565-8.766
							c-13.762,0-22.905,8.012-22.905,18.381c0,13.29,12.065,16.306,22.34,18.852c7.635,1.979,14.327,3.676,14.327,9.332
							c0,4.148-3.582,8.577-12.631,8.577c-8.015,0-14.369-3.391-18.714-7.502l-7.205,7.41c5.562,5.885,13.919,9.895,25.448,9.895
							c16.967,0,24.318-8.955,24.318-19.418C310.089,64.475,297.741,61.27,287.373,58.631z"/>
					</g>
					<g>
						<path class="st0" d="M940.862,58.631c-7.447-1.886-13.856-3.488-13.856-8.389c0-4.713,4.147-7.824,10.651-7.824
							c6.231,0,12.527,2.048,17.339,6.401l6.93-7.128l0.239-0.31c-5.844-5.656-13.762-8.766-23.565-8.766
							c-13.762,0-22.905,8.012-22.905,18.381c0,13.29,12.065,16.306,22.34,18.852c7.635,1.979,14.327,3.676,14.327,9.332
							c0,4.148-3.582,8.577-12.631,8.577c-8.015,0-14.369-3.391-18.714-7.502l-7.205,7.41c5.562,5.885,13.919,9.895,25.448,9.895
							c16.966,0,24.318-8.955,24.318-19.418C963.579,64.475,951.231,61.27,940.862,58.631z"/>
					</g>
				</g>
			</g>
			<g>
				<g>
					<g>
						<g>
							<path class="st0" d="M975.398,38.883h-1.356v2.336h-0.765v-5.775h1.912c0.65,0,1.151,0.148,1.501,0.444
								c0.351,0.296,0.526,0.727,0.526,1.293c0,0.36-0.097,0.673-0.292,0.94c-0.194,0.267-0.465,0.467-0.811,0.599l1.356,2.451
								v0.048h-0.817L975.398,38.883z M974.041,38.26h1.17c0.378,0,0.679-0.098,0.902-0.294c0.223-0.196,0.335-0.458,0.335-0.787
								c0-0.358-0.107-0.632-0.319-0.822c-0.213-0.191-0.52-0.287-0.922-0.29h-1.166V38.26z"/>
						</g>
					</g>
					<g>
						<path class="st0" d="M975.034,43.422c-2.738,0-4.966-2.228-4.966-4.967c0-2.738,2.228-4.966,4.966-4.966
							c2.738,0,4.966,2.228,4.966,4.966C980,41.194,977.772,43.422,975.034,43.422z M975.034,34.196c-2.349,0-4.26,1.911-4.26,4.26
							c0,2.349,1.911,4.261,4.26,4.261s4.26-1.911,4.26-4.261C979.294,36.107,977.383,34.196,975.034,34.196z"/>
					</g>
				</g>
			</g>
			<g>
				<path class="st0" d="M940.862,58.631c-7.447-1.886-13.856-3.488-13.856-8.389c0-4.713,4.147-7.824,10.651-7.824
					c6.231,0,12.527,2.048,17.339,6.401l6.93-7.128l0.239-0.31c-5.844-5.656-13.762-8.766-23.565-8.766
					c-13.762,0-22.905,8.012-22.905,18.381c0,13.29,12.065,16.306,22.34,18.852c7.635,1.979,14.327,3.676,14.327,9.332
					c0,4.148-3.582,8.577-12.631,8.577c-8.015,0-14.369-3.391-18.714-7.502l-7.205,7.41c5.562,5.885,13.919,9.895,25.448,9.895
					c16.966,0,24.318-8.955,24.318-19.418C963.579,64.475,951.231,61.27,940.862,58.631z"/>
			</g>
			<g>
				<g>
					<g>
						<g>
							<path class="st0" d="M975.398,38.883h-1.356v2.336h-0.765v-5.775h1.912c0.65,0,1.151,0.148,1.501,0.444
								c0.351,0.296,0.526,0.727,0.526,1.293c0,0.36-0.097,0.673-0.292,0.94c-0.194,0.267-0.465,0.467-0.811,0.599l1.356,2.451
								v0.048h-0.817L975.398,38.883z M974.041,38.26h1.17c0.378,0,0.679-0.098,0.902-0.294c0.223-0.196,0.335-0.458,0.335-0.787
								c0-0.358-0.107-0.632-0.319-0.822c-0.213-0.191-0.52-0.287-0.922-0.29h-1.166V38.26z"/>
						</g>
					</g>
					<g>
						<path class="st0" d="M975.034,43.422c-2.738,0-4.966-2.228-4.966-4.967c0-2.738,2.228-4.966,4.966-4.966
							c2.738,0,4.966,2.228,4.966,4.966C980,41.194,977.772,43.422,975.034,43.422z M975.034,34.196c-2.349,0-4.26,1.911-4.26,4.26
							c0,2.349,1.911,4.261,4.26,4.261s4.26-1.911,4.26-4.261C979.294,36.107,977.383,34.196,975.034,34.196z"/>
					</g>
				</g>
			</g>
		</g>
		<g>
			<g>
				<g>
					<g>
						<g>
							<path class="st0" d="M112.745,94.791c0.57-0.153,1.123-0.305,1.692-0.469c12.49-3.522,24.64-8.4,36.713-13.453
								c11.82-4.946,23.509-10.885,33.78-19.244c10.54-8.574,19.017-19.681,23.697-33.456c0.659-1.917,2.006-4.682,2.136-6.785
								c-16.412,22.442-81.517,24.758-81.517,24.758l15.364-14.095C82.847,32.165,39.747,58.381,20,72.401
								c25.271,2.711,48.147,13.414,66.057,29.532C94.869,99.204,103.864,97.233,112.745,94.791z"/>
						</g>
						<g>
							<path class="st0" d="M214.849,92.587c0,0-60.073-4.594-122.474,15.499c8.279,8.649,15.257,18.542,20.605,29.39
								C145.789,119.213,191.284,95.88,214.849,92.587z"/>
						</g>
						<g>
							<path class="st0" d="M117.092,146.852c3.81,9.797,6.365,20.219,7.425,31.075l57.186-58.815L117.092,146.852z"/>
						</g>
					</g>
				</g>
			</g>
		</g>
		<g>
			<g>
				<g>
					<g>
						<path class="st0" d="M147.408,170.852h-2.409v6.686h-0.983v-6.686h-2.404v-0.808h5.796V170.852z"/>
					</g>
					<g>
						<path class="st0" d="M149.796,170.044l2.45,6.115l2.45-6.115h1.282v7.494h-0.988v-2.918l0.093-3.15l-2.46,6.068h-0.757
							l-2.455-6.053l0.098,3.135v2.918h-0.988v-7.494H149.796z"/>
					</g>
				</g>
			</g>
		</g>
		<g>
			<path class="st0" d="M117.092,146.852c3.81,9.797,6.365,20.219,7.425,31.075l57.186-58.815L117.092,146.852z"/>
		</g>
	</g>
	<g>
		<g>
			<g>
				<g>
					<path class="st0" d="M545.786,131.586h-1.356v2.336h-0.765v-5.775h1.912c0.65,0,1.151,0.148,1.501,0.444
						c0.351,0.296,0.526,0.727,0.526,1.293c0,0.36-0.097,0.673-0.292,0.94c-0.194,0.267-0.465,0.467-0.811,0.599l1.356,2.451v0.048
						h-0.817L545.786,131.586z M544.43,130.963h1.17c0.378,0,0.679-0.098,0.902-0.294c0.223-0.196,0.335-0.458,0.335-0.787
						c0-0.358-0.107-0.632-0.319-0.822c-0.213-0.191-0.52-0.287-0.922-0.29h-1.166V130.963z"/>
				</g>
			</g>
			<g>
				<path class="st0" d="M545.422,136.126c-2.738,0-4.966-2.228-4.966-4.967c0-2.738,2.228-4.966,4.966-4.966
					s4.966,2.228,4.966,4.966C550.389,133.898,548.161,136.126,545.422,136.126z M545.422,126.899c-2.349,0-4.26,1.911-4.26,4.26
					s1.911,4.261,4.26,4.261s4.26-1.911,4.26-4.261S547.772,126.899,545.422,126.899z"/>
			</g>
		</g>
	</g>
</g>
</svg>
